<!-- Generated by IcoMoon.io -->
<svg version="1.1" xmlns="http://www.w3.org/2000/svg" width="24" height="24" viewBox="0 0 24 24">
<title>arrow-up-left</title>
<path fill="#fff" d="M8 17v-7.586l8.293 8.293c0.391 0.391 1.024 0.391 1.414 0s0.391-1.024 0-1.414l-8.293-8.293h7.586c0.552 0 1-0.448 1-1s-0.448-1-1-1h-10c-0.136 0-0.265 0.027-0.383 0.076s-0.227 0.121-0.323 0.216c-0.001 0.001-0.001 0.001-0.002 0.002-0.092 0.092-0.166 0.201-0.216 0.323-0.049 0.118-0.076 0.247-0.076 0.383v10c0 0.552 0.448 1 1 1s1-0.448 1-1z"></path>
</svg>
