<!-- Generated by IcoMoon.io -->
<svg version="1.1" xmlns="http://www.w3.org/2000/svg" width="24" height="24" viewBox="0 0 24 24">
<title>arrow-down-left</title>
<path fill="#fff" d="M17 16h-7.586l8.293-8.293c0.391-0.391 0.391-1.024 0-1.414s-1.024-0.391-1.414 0l-8.293 8.293v-7.586c0-0.552-0.448-1-1-1s-1 0.448-1 1v10c0 0.136 0.027 0.265 0.076 0.383s0.121 0.228 0.216 0.323c0.001 0.001 0.001 0.001 0.002 0.002 0.092 0.092 0.202 0.166 0.323 0.216 0.118 0.049 0.247 0.076 0.383 0.076h10c0.552 0 1-0.448 1-1s-0.448-1-1-1z"></path>
</svg>
