<!-- Generated by IcoMoon.io -->
<svg version="1.1" xmlns="http://www.w3.org/2000/svg" width="24" height="24" viewBox="0 0 24 24">
<title>corner-left-down</title>
<path fill="#fff" d="M20 3h-7c-1.38 0-2.632 0.561-3.536 1.464s-1.464 2.156-1.464 3.536v9.586l-3.293-3.293c-0.391-0.391-1.024-0.391-1.414 0s-0.391 1.024 0 1.414l5 5c0.096 0.096 0.206 0.168 0.324 0.217s0.247 0.076 0.383 0.076 0.265-0.027 0.383-0.076c0.118-0.049 0.228-0.121 0.324-0.217l5-5c0.391-0.391 0.391-1.024 0-1.414s-1.024-0.391-1.414 0l-3.293 3.293v-9.586c0-0.829 0.335-1.577 0.879-2.121s1.292-0.879 2.121-0.879h7c0.552 0 1-0.448 1-1s-0.448-1-1-1z"></path>
</svg>
