<!-- Generated by IcoMoon.io -->
<svg version="1.1" xmlns="http://www.w3.org/2000/svg" width="24" height="24" viewBox="0 0 24 24">
<title>droplet</title>
<path fill="#fff" d="M12.707 1.983c-0.391-0.391-1.025-0.39-1.415 0.001l-5.653 5.663c-1.757 1.758-2.635 4.063-2.634 6.365s0.88 4.607 2.638 6.363 4.063 2.635 6.365 2.634 4.607-0.88 6.363-2.638 2.635-4.063 2.634-6.365-0.88-4.607-2.638-6.363zM12.001 4.105l4.952 4.952c1.368 1.367 2.052 3.156 2.052 4.949s-0.682 3.583-2.049 4.95-3.156 2.051-4.949 2.052-3.583-0.682-4.95-2.049-2.051-3.156-2.052-4.949 0.682-3.583 2.049-4.95z"></path>
</svg>
