<!-- Generated by IcoMoon.io -->
<svg version="1.1" xmlns="http://www.w3.org/2000/svg" width="24" height="24" viewBox="0 0 24 24">
<title>framer</title>
<path fill="#fff" d="M11 17v3.586l-3.586-3.586zM12 17h1v-1c0-0.552-0.448-1-1-1s-1 0.448-1 1 0.448 1 1 1 1-0.448 1-1-0.448-1-1-1-1 0.448-1 1v1zM6 15.586v-0.586h-1c-0.136 0-0.265 0.027-0.383 0.076s-0.228 0.121-0.324 0.217-0.168 0.206-0.217 0.324c-0.049 0.118-0.076 0.247-0.076 0.383 0 0.552 0.448 1 1 1h2.414zM12.414 8l-5-5h10.586v5z"></path>
</svg>
