<!-- Generated by IcoMoon.io -->
<svg version="1.1" xmlns="http://www.w3.org/2000/svg" width="24" height="24" viewBox="0 0 24 24">
<title>key</title>
<path fill="#fff" d="M19 5.414l1.586 1.586-2.086 2.086-1.586-1.586zM10.688 12.323c0.884 0.873 1.331 2.020 1.339 3.172 0.008 1.153-0.424 2.306-1.297 3.191s-2.020 1.332-3.173 1.339-2.306-0.424-3.191-1.297l-0.042-0.042c-0.874-0.885-1.305-2.038-1.297-3.191s0.455-2.3 1.339-3.173c0.879-0.867 2.023-1.299 3.169-1.296 1.141 0.002 2.278 0.435 3.152 1.296zM18.293 3.293c-0.391 0.391-0.391 1.024 0 1.414l0.707 0.707 1.414-1.414-0.707-0.707c-0.391-0.391-1.024-0.391-1.414 0zM18.293 3.293c-0.391 0.391-0.391 1.024 0 1.414s1.024 0.391 1.414 0 0.391-1.024 0-1.414-1.024-0.391-1.414 0l-3.5 3.5c-0.391 0.391-0.391 1.024 0 1.414l0.707 0.707 1.414-1.414-0.707-0.707c-0.391-0.391-1.024-0.391-1.414 0s-0.391 1.024 0 1.414 1.024 0.391 1.414 0 0.391-1.024 0-1.414-1.024-0.391-1.414 0l-3.461 3.461c-1.129-0.816-2.462-1.226-3.793-1.229-1.652-0.003-3.308 0.62-4.577 1.873-1.277 1.26-1.923 2.921-1.935 4.583s0.613 3.332 1.873 4.609l0.062 0.062c1.277 1.26 2.947 1.884 4.609 1.873s3.323-0.657 4.583-1.935 1.884-2.947 1.873-4.609c-0.009-1.345-0.434-2.689-1.273-3.821l2.746-2.746 2.293 2.293c0.391 0.391 1.024 0.391 1.414 0l3.5-3.5c0.391-0.391 0.391-1.024 0-1.414l-2.293-2.293 1.293-1.293c0.391-0.391 0.391-1.024 0-1.414s-1.024-0.391-1.414 0z"></path>
</svg>
