<!-- Generated by IcoMoon.io -->
<svg version="1.1" xmlns="http://www.w3.org/2000/svg" width="24" height="24" viewBox="0 0 24 24">
<title>mic-off</title>
<path fill="#fff" d="M12.516 13.93c-0.164 0.044-0.336 0.067-0.514 0.067-0.553 0-1.051-0.222-1.415-0.585s-0.587-0.86-0.587-1.412v-0.586zM16 9.34v-5.34c0.001-1.103-0.447-2.105-1.169-2.829s-1.723-1.173-2.827-1.174c-1.014-0.001-1.943 0.377-2.649 1.002-0.636 0.563-1.092 1.327-1.274 2.197-0.113 0.541 0.234 1.070 0.775 1.183s1.070-0.234 1.183-0.775c0.092-0.44 0.322-0.825 0.641-1.107 0.353-0.313 0.814-0.5 1.322-0.5 0.553 0.001 1.051 0.224 1.414 0.587s0.585 0.862 0.584 1.416v5.34c0 0.552 0.448 1 1 1s1-0.448 1-1zM18 10v2c0 0.376-0.035 0.74-0.093 1.045-0.102 0.543 0.255 1.066 0.798 1.168s1.066-0.255 1.168-0.798c0.082-0.435 0.127-0.922 0.127-1.415v-2c0-0.552-0.448-1-1-1s-1 0.448-1 1zM8 24h8c0.552 0 1-0.448 1-1s-0.448-1-1-1h-3v-2.011c1.402-0.176 2.768-0.723 3.935-1.64l5.358 5.358c0.391 0.391 1.024 0.391 1.414 0s0.391-1.024 0-1.414l-5.838-5.838c-0.045-0.079-0.101-0.153-0.169-0.219-0.063-0.062-0.132-0.113-0.205-0.155l-15.788-15.788c-0.391-0.391-1.024-0.391-1.414 0s-0.391 1.024 0 1.414l7.707 7.707v2.586c0.001 1.105 0.451 2.106 1.174 2.828s1.725 1.17 2.829 1.169c0.739-0.001 1.433-0.202 2.027-0.553l1.477 1.477c-0.959 0.693-2.078 1.068-3.212 1.123-0.094-0.029-0.193-0.044-0.295-0.044-0.103 0-0.201 0.015-0.295 0.044-1.417-0.069-2.812-0.637-3.905-1.707-1.153-1.129-1.753-2.607-1.798-4.105l-0.002-2.232c0-0.552-0.448-1-1-1s-1 0.448-1 1l0.004 2.292c0.060 1.994 0.861 3.968 2.398 5.474 1.298 1.273 2.923 2.013 4.598 2.223v2.011h-3c-0.552 0-1 0.448-1 1s0.448 1 1 1z"></path>
</svg>
