<!-- Generated by IcoMoon.io -->
<svg version="1.1" xmlns="http://www.w3.org/2000/svg" width="24" height="24" viewBox="0 0 24 24">
<title>wifi-off</title>
<path fill="#fff" d="M16.281 11.959c0.789 0.385 1.498 0.857 2.064 1.347 0.418 0.361 1.049 0.316 1.411-0.102s0.316-1.049-0.102-1.411c-0.703-0.609-1.559-1.175-2.496-1.633-0.496-0.242-1.095-0.036-1.337 0.46s-0.036 1.095 0.46 1.337zM10.79 6.047c4.018-0.324 7.793 0.966 10.692 3.333 0.148 0.121 0.293 0.244 0.436 0.37 0.414 0.365 1.046 0.325 1.411-0.089s0.325-1.046-0.089-1.411c-0.162-0.143-0.327-0.282-0.494-0.419-3.283-2.68-7.564-4.145-12.118-3.778-0.549 0.045-0.959 0.527-0.915 1.077s0.527 0.961 1.077 0.916zM9.109 16.925c0.99-0.704 2.146-0.995 3.274-0.906 0.891 0.070 1.765 0.378 2.523 0.909 0.233 0.163 0.512 0.213 0.77 0.162l6.617 6.617c0.391 0.391 1.024 0.391 1.414 0s0.391-1.024 0-1.414l-12.75-12.75c-0.050-0.063-0.106-0.12-0.169-0.169l-9.081-9.081c-0.391-0.391-1.024-0.391-1.414 0s-0.391 1.024 0 1.414l4.088 4.088c-1.257 0.629-2.49 1.453-3.623 2.455-0.414 0.366-0.453 0.998-0.087 1.412s0.998 0.453 1.412 0.087c1.191-1.053 2.499-1.877 3.802-2.451l2.323 2.323c-1.358 0.457-2.671 1.177-3.849 2.161-0.424 0.354-0.48 0.985-0.126 1.409s0.985 0.48 1.409 0.126c1.27-1.062 2.724-1.75 4.188-2.074l2.789 2.789c-0.026-0.002-0.052-0.005-0.078-0.007-1.58-0.125-3.204 0.285-4.589 1.269-0.45 0.32-0.556 0.944-0.236 1.394s0.944 0.556 1.394 0.236zM13 20c0-0.552-0.448-1-1-1s-1 0.448-1 1 0.448 1 1 1 1-0.448 1-1z"></path>
</svg>
